# xmcd CD database file
# Copyright (C) 1993-1998 Ti Kan
# 
# Track frame offsets:
#     150
#     10993
#     23785
#     34410
#     48615
#     63680
#     80565
#     94210
#     107900
#     118763
#     129825
#     140303
# 
# Disc length: 2124 seconds
# 
# Revision: 1
# Processed by: cddbd v1.4b41PL1 Copyright (c) Steve Scherf et al.
# Submitted via: DiscPlay 4.0.4
# 
DISCID=a7084a0c
DTITLE=Renato Borghetti - O Melhor de Renato Borghetti
DYEAR=1900
DGENRE=
TTITLE0=Milonga Para As Miss es
TTITLE1=Encontro
TTITLE2=Telmo De Lima Freitas
TTITLE3=O Sem Vergonha
TTITLE4=S tima Do Pontal
TTITLE5=Pialo De Sangue
TTITLE6=Hospitaleira Vacaria
TTITLE7=Fabrica  o Caseira
TTITLE8=Merceditas
TTITLE9=Segura Essa
TTITLE10=Vaner o Ga cho
TTITLE11=Prenda Minha
EXTD=
EXTT0=
EXTT1=Participa  o Especial - Sivuca
EXTT2=
EXTT3=
EXTT4=
EXTT5=
EXTT6=
EXTT7=
EXTT8=
EXTT9=
EXTT10=
EXTT11=
PLAYORDER=
